<svg width="800" height="800" viewBox="0 0 800 800" fill="none" xmlns="http://www.w3.org/2000/svg">
<path d="M399.999 333.334C473.637 333.334 533.333 273.638 533.333 200C533.333 126.362 473.637 66.667 399.999 66.667C326.361 66.667 266.666 126.362 266.666 200C266.666 273.638 326.361 333.334 399.999 333.334Z" stroke="white" stroke-width="50"/>
<path d="M499.999 687.17C469.689 695.396 435.786 700 399.999 700C271.133 700 166.666 640.303 166.666 566.666C166.666 493.03 271.133 433.333 399.999 433.333C528.866 433.333 633.333 493.03 633.333 566.666C633.333 578.176 630.779 589.346 625.983 600" stroke="white" stroke-width="50" stroke-linecap="round"/>
</svg>
