<svg width="800" height="800" viewBox="0 0 800 800" fill="none" xmlns="http://www.w3.org/2000/svg">
<path d="M448.45 116.762C480.694 116.762 506.844 90.6266 506.844 58.3812C506.844 26.1375 480.694 0 448.45 0C416.216 0 390.078 26.1375 390.078 58.3812C390.078 90.6266 416.216 116.762 448.45 116.762Z" fill="white"/>
<path d="M581.562 656.242H441.327V554.135H301.148V452.003H160.924V349.872H41.4961V391.499H119.307V493.63H259.532V595.761H399.712V697.869H539.946V800H719.121V758.385L581.562 758.374V656.242Z" fill="white"/>
<path d="M746.85 283.191C745.856 276.564 739.681 271.991 733.042 272.984L705.025 277.197L702.626 261.267C701.633 254.786 695.604 250.348 689.134 251.308L686.198 251.748C685.792 249.039 684.854 246.362 683.308 243.901L642.844 179.197C638.475 172.22 631.825 166.981 624.012 164.373L550.75 130.209C524.512 117.981 493.847 119.912 469.336 135.334L356.719 206.261L290.806 175.325C280.567 169.591 267.65 172.987 261.565 183.014L260.731 184.369C257.728 189.348 256.801 195.297 258.201 200.931C259.59 206.566 263.192 211.409 268.183 214.391L346.739 261.267C356.506 267.103 368.417 268.155 379.062 264.134L425.589 239.07L447.65 328.059L374.322 327.687C361.97 327.653 350.24 333.13 342.359 342.647C334.479 352.166 331.284 364.708 333.631 376.845L358.3 503.848C361.033 517.916 374.365 527.331 388.536 525.208L389.597 525.051C403.629 522.951 413.578 510.272 412.278 496.148L403.923 405.15L514.578 407.723C530.462 408.086 545.661 401.231 555.9 389.073C566.14 376.925 570.306 360.78 567.247 345.176L564.412 330.792L541.651 202.356L600.304 211.016L643.208 260.772C640.678 263.347 639.194 266.867 639.764 270.708L642.162 286.661L614.147 290.872C607.509 291.866 602.947 298.053 603.953 304.691L615.458 381.237C616.462 387.866 622.639 392.437 629.265 391.444L748.175 373.561C754.801 372.567 759.364 366.38 758.368 359.741L746.85 283.191ZM651.167 269.756C657.929 276.328 668.322 277.569 676.411 272.444L676.886 272.137C680.301 269.981 682.823 266.956 684.426 263.569L690.839 262.597L691.336 262.958L693.736 278.901L653.451 284.951L651.167 269.756Z" fill="white"/>
<path d="M615.105 601.305C624.927 611.568 641.152 612.189 651.731 602.694L652.488 602.029C663.033 592.568 664.184 576.433 655.108 565.538L594.638 484.396L577.725 398.455C576.416 400.341 575.072 402.204 573.581 403.975C559.198 421.058 538.119 430.857 515.775 430.857L505.5 430.619L525.677 495.91C530.892 506.703 537.677 516.683 545.795 525.546L615.105 601.305Z" fill="white"/>
</svg>
