<svg width="800" height="800" viewBox="0 0 800 800" fill="none" xmlns="http://www.w3.org/2000/svg">
<path d="M359.122 300.909C366.24 296.205 372.876 291.78 378.901 288.134C393.247 279.465 397.86 260.8 389.162 246.46C380.513 232.113 361.841 227.536 347.506 236.185C340.814 240.222 333.436 245.106 325.56 250.319C300.086 267.209 261.338 293.494 239.595 287.348C223.703 282.857 221.786 271.909 216.555 263.976C205.297 243.2 181.378 229.412 159.764 229.862C159.764 229.862 140.487 229.862 117.002 239.102C11.1784 276.841 10.8961 301.878 10.9093 314.123C10.9242 325.29 11.1537 336.081 42.4797 354.298H0.100722L0 707.167H264.297L281.84 545.671C281.84 545.671 194.204 539.215 150.559 532.894C98.1226 525.302 88.9537 476.964 88.9537 476.964L61.6647 364.433C77.303 372.05 97.6058 380.786 124.409 391.118C127.997 392.496 131.679 393.152 135.307 393.152C147.501 393.152 158.99 385.754 163.643 373.712C169.666 358.061 161.865 340.486 146.223 334.467C129.724 328.11 111.259 320.322 95.9678 313.285C98.5866 312.077 101.463 310.836 104.298 309.583L146.689 326.423C172.277 336.304 179.425 357.004 171.859 376.676C166.21 391.35 149.162 409.624 119.243 397.81C110.004 394.164 101.686 390.924 93.8048 387.675L106.97 473.215C110.719 497.564 125.666 510.17 151.564 517.148C164.074 522.373 299.663 532.663 299.663 532.663C295.098 585.781 285.8 672.941 284.68 683.132C281.641 704.32 295.357 724.615 316.568 729.398C319.632 730.079 322.7 730.407 325.694 730.407C344.63 730.407 361.704 717.327 366.034 698.087C367.855 689.977 383.762 500.23 383.913 498.34C384.869 486.836 380.475 474.294 372.688 465.784C362.693 454.854 353.734 445.195 247.257 441.587L232.789 347.667C237.12 348.317 241.453 348.75 245.794 348.75C286.984 348.752 327.984 321.563 359.122 300.909Z" fill="white"/>
<path d="M147.133 225.95C190.31 225.95 225.313 190.948 225.313 147.771C225.313 104.593 190.31 69.5908 147.133 69.5908C103.955 69.5908 68.9531 104.593 68.9531 147.771C68.9531 190.948 103.955 225.95 147.133 225.95Z" fill="white"/>
<path d="M799.904 354.298H757.522C788.848 336.081 789.079 325.29 789.092 314.123C789.106 301.878 788.825 276.841 683 239.102C659.512 229.862 640.239 229.862 640.239 229.862C618.624 229.412 594.706 243.2 583.449 263.976C578.214 271.909 576.301 282.858 560.408 287.348C538.664 293.495 499.914 267.209 474.443 250.319C466.565 245.108 459.19 240.222 452.494 236.185C438.162 227.534 419.491 232.113 410.84 246.46C402.138 260.8 406.753 279.465 421.1 288.134C427.124 291.78 433.763 296.205 440.88 300.909C472.016 321.563 513.016 348.752 554.206 348.752C558.547 348.752 562.882 348.319 567.211 347.669L552.745 441.589C446.268 445.198 437.308 454.856 427.312 465.785C419.524 474.295 415.131 486.838 416.089 498.341C416.239 500.232 432.147 689.978 433.966 698.089C438.297 717.328 455.372 730.409 474.308 730.409C477.301 730.409 480.368 730.08 483.432 729.4C504.642 724.618 518.359 704.322 515.321 683.134C514.198 672.943 504.899 585.783 500.339 532.664C500.339 532.664 635.928 522.374 648.437 517.15C674.334 510.17 689.279 497.565 693.032 473.217L706.195 387.676C698.316 390.926 689.992 394.164 680.757 397.811C650.838 409.624 633.79 391.35 628.141 376.678C620.574 357.006 627.723 336.305 653.311 326.425L695.7 309.584C698.539 310.837 701.413 312.078 704.032 313.286C688.742 320.323 670.279 328.112 653.779 334.469C638.136 340.488 630.334 358.063 636.357 373.714C641.01 385.756 652.499 393.153 664.691 393.153C668.319 393.153 672.004 392.498 675.592 391.119C702.394 380.789 722.697 372.053 738.335 364.435L711.046 476.965C711.046 476.965 701.877 525.303 649.441 532.895C605.796 539.216 518.161 545.672 518.161 545.672L535.703 707.169H800L799.904 354.298Z" fill="white"/>
<path d="M652.871 225.95C696.049 225.95 731.051 190.948 731.051 147.771C731.051 104.593 696.049 69.5908 652.871 69.5908C609.694 69.5908 574.691 104.593 574.691 147.771C574.691 190.948 609.694 225.95 652.871 225.95Z" fill="white"/>
</svg>
