<svg width="800" height="800" viewBox="0 0 800 800" fill="none" xmlns="http://www.w3.org/2000/svg">
<g clip-path="url(#clip0_460_102)">
<path d="M540.523 364.562C535.322 361.621 528.718 363.453 525.776 368.654C522.836 373.856 524.667 380.474 529.876 383.415C537.867 387.965 542.743 393.042 545.967 398.287C532.623 402.974 520.795 404.903 510.343 404.903C495.048 404.888 482.537 400.851 471.987 394.665C461.465 388.465 452.956 379.988 446.504 371.193C435.87 356.696 422.034 343.784 405.726 334.363C389.442 324.971 370.603 319.103 350.384 319.103C332.654 319.09 313.97 323.654 295.457 333.821C287.889 337.97 281.328 342.824 275.614 348.123C253.092 356.793 233.686 359.914 217.268 359.914C193.879 359.914 176.407 353.629 164.726 347.456C158.893 344.376 154.531 341.31 151.707 339.092C150.292 337.968 149.261 337.079 148.62 336.498L147.954 335.859L147.85 335.762H147.845C143.697 331.503 136.872 331.393 132.578 335.526C128.278 339.673 128.153 346.526 132.301 350.826C132.904 351.437 140.347 359.053 154.593 366.599C160.829 369.901 168.473 373.146 177.303 375.796C174.957 379.098 171.754 383.924 168.265 390.07C161.557 401.903 153.851 418.509 149.925 438.096C148.753 443.949 152.554 449.653 158.415 450.831C164.276 451.995 169.984 448.193 171.15 442.328C174.443 425.834 181.172 411.171 187.095 400.753C190.05 395.537 192.79 391.388 194.761 388.599C195.745 387.199 196.536 386.131 197.064 385.437C197.326 385.103 197.528 384.84 197.647 384.687L197.772 384.534L197.786 384.52L197.792 384.506C198.79 383.285 199.457 381.912 199.837 380.47C205.345 381.148 211.129 381.565 217.268 381.551C228.65 381.565 241.114 380.22 254.536 377.168C247.882 391.512 245.145 406.481 245.137 420.199C245.164 434.017 247.793 446.557 252.482 456.545C255.04 461.956 261.498 464.257 266.901 461.706C272.304 459.153 274.614 452.689 272.054 447.293V447.279C269.045 441.009 266.754 431.132 266.79 420.199C266.782 408.409 269.328 395.424 275.432 383.578C281.57 371.731 291.101 360.924 305.868 352.795C321.453 344.264 336.331 340.767 350.384 340.754C366.384 340.754 381.457 345.374 394.912 353.113C408.354 360.868 420.098 371.785 429.043 383.992C436.915 394.729 447.447 405.328 461 413.318C474.525 421.309 491.131 426.565 510.343 426.551C523.056 426.551 536.867 424.248 551.697 419.198L551.731 419.974C551.731 425.274 550.906 430.101 550.081 433.514C549.672 435.22 549.262 436.567 548.978 437.44C548.832 437.87 548.722 438.188 548.653 438.368L548.59 438.535L548.584 438.562H548.59C546.398 444.098 549.097 450.368 554.631 452.587C560.179 454.807 566.484 452.101 568.704 446.553C568.981 445.776 573.339 434.97 573.379 419.973C573.379 411.371 571.873 401.273 566.873 391.301C561.907 381.334 553.334 371.762 540.523 364.562Z" fill="white"/>
<path d="M564.659 292.275C534.904 292.275 511.009 281.316 494.481 266.972C486.234 259.814 479.893 251.809 475.726 244.153C471.537 236.481 469.615 229.184 469.643 223.719C469.643 217.739 464.795 212.898 458.816 212.898C452.838 212.898 447.995 217.739 447.995 223.719C448.023 233.9 451.206 244.333 456.713 254.487C462.477 265.059 470.898 275.323 481.601 284.367C479.443 287.364 476.466 291.222 472.666 295.355C464.42 304.358 452.532 314.331 438.34 319.367C432.709 321.378 429.774 327.58 431.787 333.197C433.798 338.83 439.993 341.772 445.618 339.758C464.879 332.836 479.298 320.214 489.079 309.475C493.435 304.675 496.826 300.292 499.331 296.783C517.24 307.117 539.359 313.942 564.662 313.928C570.634 313.928 575.49 309.087 575.49 303.108C575.485 297.131 570.631 292.275 564.659 292.275Z" fill="white"/>
<path d="M492.494 503.964C472.242 503.964 456.15 500.052 443.22 494.074C423.869 485.085 411.314 471.269 403.414 457.492C399.475 450.625 396.756 443.788 395.042 437.78C393.322 431.802 392.648 426.558 392.662 423.381C392.662 417.403 387.822 412.56 381.842 412.56C375.856 412.56 371.016 417.402 371.016 423.381C371.016 427.28 371.48 431.594 372.431 436.338C374.081 444.605 377.223 454.164 382.316 464.013C389.953 478.774 402.077 494.253 420.194 506.019C424.73 508.986 429.641 511.678 434.925 514.091C435.75 517.642 436.895 523.967 436.888 531.597C436.888 537.147 436.291 543.333 434.613 549.674C432.934 556.013 430.202 562.478 425.859 568.761C422.455 573.686 423.681 580.427 428.6 583.827C433.519 587.225 440.259 586.005 443.659 581.094C449.569 572.549 453.312 563.671 455.547 555.208C457.787 546.733 458.536 538.674 458.536 531.597C458.536 528.06 458.342 524.786 458.05 521.791C468.483 524.219 479.912 525.633 492.494 525.619C498.467 525.619 503.316 520.764 503.316 514.785C503.316 508.819 498.467 503.964 492.494 503.964Z" fill="white"/>
<path d="M639.534 341.356C634.173 336.738 628.389 332.95 622.284 330.258C616.188 327.567 609.744 325.958 603.147 325.958C597.169 325.958 592.32 330.799 592.32 336.778C592.32 342.772 597.169 347.613 603.147 347.613C607.128 347.599 612.164 348.986 617.456 352.052C625.391 356.602 633.639 364.772 639.638 375.01C645.672 385.233 649.494 397.4 649.488 409.967C649.439 423.799 645.083 438.225 633.292 452.57C629.484 457.189 630.136 464 634.748 467.814C639.355 471.616 646.18 470.964 649.988 466.358C664.844 448.433 671.183 428.555 671.134 409.967C671.134 398.675 668.873 387.87 665.073 378.02C659.356 363.258 650.25 350.622 639.534 341.356Z" fill="white"/>
<path d="M262.616 283.647V283.633C270.052 274.823 280.644 267.915 292.719 263.269C304.774 258.608 318.23 256.276 330.819 256.29C343.082 256.262 354.499 258.523 362.872 262.422C368.304 264.919 374.732 262.561 377.244 257.123C379.747 251.698 377.375 245.276 371.952 242.764C359.857 237.201 345.644 234.648 330.821 234.636C315.604 234.636 299.725 237.383 284.938 243.054C270.186 248.742 256.446 257.428 246.091 269.648C242.227 274.212 242.796 281.05 247.36 284.908C251.921 288.779 258.754 288.197 262.616 283.647Z" fill="white"/>
<path d="M752.551 252.365L752.559 252.379L752.551 252.365Z" fill="white"/>
<path d="M525.25 613.763V613.777H525.242L525.25 613.763Z" fill="white"/>
<path d="M769.086 325.651C767.172 323.709 765.119 321.864 763.039 320.048C764.127 313.986 764.758 307.812 764.758 301.542C764.764 284.923 760.805 268 752.558 252.379C743.131 234.47 729.169 220.264 712.869 210.637C701.467 203.895 688.927 199.401 675.928 197.306C672.773 186.084 667.827 175.401 661.181 165.706C650.119 149.559 634.387 136.187 615.139 127.904C601.372 121.981 586.923 119.137 572.733 119.137C572.733 119.137 572.295 119.123 571.498 119.194C553.478 119.403 535.938 124.133 520.42 132.775C514.352 125.464 507.333 118.958 499.522 113.478C482.403 101.451 461.47 94.3201 439.073 94.0982C438.816 94.0842 438.505 94.0717 438.123 94.0576C438.075 94.0576 438.027 94.0576 437.972 94.0576H437.958H437.944H437.937C437.903 94.0576 437.869 94.0576 437.834 94.0576C437.627 94.0576 437.377 94.0717 437.058 94.0842C417.555 94.2373 399.125 99.6201 383.38 108.94C376.555 112.964 370.327 117.804 364.611 123.187C348.298 113.019 329.022 107.081 308.491 106.984L308.416 106.972H307.93C307.916 106.972 307.908 106.972 307.895 106.972C307.867 106.972 307.839 106.972 307.806 106.972C307.556 106.972 307.244 106.984 306.848 107.012C285.006 107.22 264.523 113.99 247.636 125.476C237.848 132.122 229.283 140.348 222.2 149.765C213.239 147.339 203.883 146.022 194.323 146.022C186.369 146.022 178.302 146.923 170.27 148.754C146.617 154.178 126.414 167.148 111.936 184.475H111.944C101.783 196.612 94.4516 210.928 90.4281 226.369C75.0016 231.6 60.4641 240.367 48.3047 252.753C48.2984 252.767 48.2844 252.781 48.2703 252.795C27.8781 273.589 17.6125 300.792 17.6203 327.801V327.842V327.898C17.6203 327.898 17.6203 327.925 17.6203 327.953V328.244H17.6266C17.6531 337.634 18.9234 346.998 21.4 356.098C7.49844 374.703 0.00781959 397.3 7.08603e-06 420.426C-0.00624291 437.544 4.12188 454.953 12.7 471.003C22.3406 489.023 36.5188 503.297 53.0125 512.965C64.5813 519.748 77.2813 524.231 90.4375 526.339C97.4438 545.164 109.456 561.408 124.827 573.434C143.109 587.765 166.173 596.24 190.886 596.24C193.453 596.24 196.013 596.159 198.57 595.964H198.633H198.667H198.675H198.681C209.591 595.173 220.044 592.719 229.781 588.931C236.253 599.306 244.388 608.475 253.836 616.037C272.113 630.672 295.355 639.412 320.269 639.523C320.359 639.537 320.434 639.537 320.513 639.537C320.597 639.537 320.678 639.537 320.756 639.537H320.77C320.778 639.537 320.778 639.537 320.778 639.537H320.798H320.909C320.945 639.537 320.959 639.537 320.994 639.537L321.264 639.523H321.341C323.331 639.509 325.33 639.426 327.319 639.301H327.347L328.519 639.273C337.437 638.62 346.053 636.886 354.217 634.197C364.503 649.47 378.827 662.356 396.548 670.903H396.541C411.494 678.115 427.447 681.57 443.103 681.57C458.347 681.57 473.259 678.256 486.938 672.123C506.816 693.236 534.845 705.915 564.995 705.945C571.606 705.945 578.292 705.334 584.98 704.072C610.664 699.245 632.672 685.497 648.07 666.728H648.064C658.12 654.508 665.356 640.081 669.227 624.515C686.989 622.769 704.614 616.581 720.192 605.622C735.016 595.217 746.502 581.622 754.2 566.447C761.9 551.284 765.867 534.553 765.867 517.672C765.867 506.422 764.036 495.128 760.436 484.239C769.681 476.708 777.858 467.523 784.378 456.773C794.922 439.433 799.998 420.095 799.998 401.089C799.994 373.303 789.222 346.044 769.086 325.651ZM751.995 437.1C741.113 455.022 723.57 466.176 704.406 469.492C698.511 470.505 694.558 476.109 695.569 481.989C696.581 487.886 702.18 491.839 708.069 490.826C712.473 490.078 716.809 488.981 721.061 487.595C725.692 497.167 727.977 507.433 727.977 517.67C727.983 528.615 725.397 539.49 720.417 549.298C715.43 559.108 708.077 567.831 698.422 574.63C686.264 583.147 672.461 587.212 658.706 587.225C657.631 587.225 656.556 587.142 655.481 587.087C655.253 585.284 655.03 583.495 654.697 581.704V581.69C652.325 569.136 647.442 557.65 640.734 547.676L639.916 546.454L638.806 545.497C630.6 538.478 619.717 526.936 611.317 515.173C607.108 509.305 603.508 503.367 601.088 498.083C598.638 492.797 597.516 488.176 597.556 485.445C597.556 484.225 597.737 483.406 597.939 482.851C598.153 482.311 598.355 481.99 598.778 481.548C603.002 477.331 603.002 470.464 598.778 466.247C594.547 462.017 587.694 462.017 583.469 466.247V466.234C580.834 468.869 578.844 472.045 577.622 475.375C576.402 478.704 575.909 482.131 575.909 485.447C575.95 492.951 578.219 500.053 581.409 507.1C586.245 517.615 593.458 528.061 601.247 537.59C608.578 546.553 616.381 554.584 623.366 560.744C628.172 568.151 631.683 576.503 633.417 585.7C634.145 589.57 634.547 593.412 634.603 597.115L634.609 597.172C634.617 597.672 634.623 598.158 634.623 598.656C634.623 615.026 628.803 630.492 618.795 642.686C608.772 654.867 594.67 663.689 577.977 666.837C573.608 667.658 569.272 668.059 565.006 668.059C542.048 668.073 520.809 656.559 508.048 638.192C514.916 631.228 520.769 623.044 525.248 613.778C530.805 602.292 533.717 590.139 534.252 578.126C534.516 572.133 529.883 567.084 523.917 566.82C517.939 566.558 512.881 571.189 512.617 577.156C512.208 586.353 510.003 595.564 505.752 604.344L505.745 604.372C501.208 613.776 494.855 621.642 487.302 627.872L487.261 627.898C474.853 638.081 459.148 643.686 443.106 643.686C432.994 643.686 422.748 641.465 413.003 636.776C394.955 628.064 382.422 612.667 376.88 594.967L376.872 594.953C374.756 588.237 373.661 581.205 373.661 574.117C373.661 564.005 375.881 553.767 380.589 543.973C383.191 538.59 380.923 532.126 375.539 529.533C370.158 526.939 363.686 529.2 361.092 534.583C354.945 547.317 352.012 560.842 352.012 574.119C352.012 580.555 352.748 586.923 354.08 593.165C345.625 597.784 336.087 600.725 325.78 601.49H325.759C324.081 601.601 322.416 601.656 320.78 601.656C304.528 601.656 289.47 596.023 277.498 586.453C267.08 578.128 259.097 566.851 254.831 553.797C262.453 546.278 268.766 537.484 273.378 527.731C275.93 522.334 273.62 515.87 268.217 513.317C262.814 510.764 256.356 513.067 253.803 518.478C249.517 527.55 243.303 535.597 235.652 542.047C224.817 551.187 211.133 557.084 195.895 558.179H195.873C194.202 558.29 192.538 558.359 190.894 558.359C156.519 558.373 127.18 533.015 122.227 499.03L122.214 498.945L122.2 498.861C121.936 497.253 121.748 495.559 121.623 493.812C121.506 492.119 121.445 490.454 121.445 488.79C121.445 484.406 121.855 480.12 122.63 475.945C123.713 470.062 119.828 464.417 113.947 463.32C108.072 462.237 102.427 466.123 101.338 472.005C100.331 477.442 99.7969 483.061 99.7969 488.79L99.8188 489.414C90.0875 488.331 80.6406 485.239 72.1781 480.273C61.5031 474.015 52.3969 464.875 46.1125 453.139C40.5219 442.68 37.8938 431.498 37.8859 420.442C37.8859 406.181 42.3125 392.172 50.5031 380.464C53.6375 384.903 57.2109 389.12 61.2125 393.045C70.3344 402.008 80.9172 408.653 92.1344 412.98C97.7047 415.145 103.975 412.37 106.131 406.794C108.289 401.217 105.516 394.947 99.9453 392.795C91.3859 389.48 83.3547 384.445 76.3828 377.592L76.3688 377.58C70.2375 371.572 65.4719 364.72 62.0375 357.381C57.6891 348.087 55.5047 338.001 55.5047 327.903C55.5109 310.326 62.0797 292.862 75.3344 279.309C86.6047 267.837 100.791 261.122 115.534 259.111H115.548H115.563L115.603 259.097C118.719 258.681 121.853 258.459 125.002 258.473C142.572 258.487 160.07 265.064 173.617 278.311C177.889 282.486 184.742 282.417 188.925 278.145C193.108 273.873 193.031 267.02 188.759 262.844C171.522 245.961 149.169 237.333 126.778 236.903C129.331 226.54 134.2 216.914 140.997 208.798C150.402 197.562 163.339 189.239 178.742 185.687C183.973 184.494 189.189 183.912 194.32 183.912C203.392 183.912 212.209 185.715 220.358 189.017C218.041 197.076 216.766 205.581 216.766 214.361C216.766 220.339 221.614 225.181 227.592 225.181C233.57 225.181 238.412 220.34 238.412 214.361C238.412 204.886 240.32 195.842 243.727 187.629C248.955 175.089 257.792 164.379 268.911 156.819C280.052 149.259 293.417 144.875 307.912 144.861C328.769 144.875 347.4 154.003 360.169 168.554L360.191 168.569C370.927 180.789 377.398 196.77 377.406 214.359C377.406 220.337 382.247 225.18 388.233 225.18C394.212 225.18 399.053 220.339 399.053 214.359C399.061 194.37 392.595 175.809 381.644 160.784C387.248 153.017 394.392 146.44 402.659 141.558C413.008 135.44 425.022 131.945 437.95 131.945C452.8 131.945 466.464 136.578 477.75 144.5C489.034 152.406 497.872 163.601 502.858 176.654L502.852 176.642C505.794 184.369 507.409 192.678 507.416 201.445C507.416 207.423 512.258 212.267 518.237 212.267C524.216 212.267 529.064 207.425 529.064 201.445C529.064 192.511 527.725 183.883 525.325 175.726C538.142 163.783 555.156 157.026 572.713 157.026C581.881 157.026 591.177 158.858 600.166 162.714C612.7 168.111 622.764 176.697 629.942 187.156C637.114 197.601 641.345 209.906 642.061 222.612C642.13 223.917 642.172 225.234 642.172 226.551C642.164 235.72 640.353 245.003 636.498 253.992C634.139 259.486 636.672 265.851 642.164 268.209C647.658 270.581 654.023 268.029 656.383 262.536C660.398 253.214 662.708 243.545 663.491 233.919C674.103 234.626 684.439 237.844 693.594 243.254C704.045 249.442 712.938 258.458 719.034 270.028V270.04C724.369 280.14 726.866 290.904 726.872 301.545C726.872 306.428 726.309 311.254 725.277 315.986C718.742 313.461 712.034 311.726 705.272 310.77C699.355 309.937 693.884 314.059 693.052 319.995C692.219 325.906 696.339 331.384 702.262 332.217C709.053 333.175 715.747 335.131 722.169 338.155C723.306 340 724.984 341.539 727.128 342.454C728.467 343.023 729.855 343.301 731.228 343.314C735.222 345.978 738.858 348.961 742.103 352.262L741.958 352.111L742.131 352.29C755.094 365.386 762.112 383.073 762.106 401.092C762.108 413.392 758.863 425.809 751.995 437.1Z" fill="white"/>
</g>
<defs>
<clipPath id="clip0_460_102">
<rect width="800" height="800" fill="white"/>
</clipPath>
</defs>
</svg>
