<svg width="800" height="800" viewBox="0 0 800 800" fill="none" xmlns="http://www.w3.org/2000/svg">
<path d="M592 125.438H208C137.308 125.438 80 182.745 80 253.438V573.437C80 644.131 137.308 701.437 208 701.437H592C662.691 701.437 720 644.131 720 573.437V253.438C720 182.745 662.691 125.438 592 125.438Z" stroke="white" stroke-width="48" stroke-linecap="round" stroke-linejoin="round"/>
<path d="M80 319.039H187.842C213.303 319.039 237.719 329.152 255.723 347.155C273.726 365.158 283.842 389.578 283.842 415.04C283.842 440.499 273.726 464.918 255.723 482.922C237.719 500.925 213.303 511.04 187.842 511.04H80" stroke="white" stroke-width="48" stroke-linecap="round" stroke-linejoin="round"/>
</svg>
