<svg width="800" height="800" viewBox="0 0 800 800" fill="none" xmlns="http://www.w3.org/2000/svg">
<g clip-path="url(#clip0_460_33)">
<path d="M400 0C333.827 0 280 53.8266 280 120C280 186.173 333.827 240 400 240C466.173 240 520 186.173 520 120C520 53.8266 466.173 0 400 0ZM400 200C355.814 200 320 164.186 320 120C320 75.8141 355.814 40 400 40C444.186 40 480 75.8141 480 120C480 164.186 444.186 200 400 200Z" fill="white"/>
<path d="M519.36 272.853C515.893 253.827 499.334 240 480.001 240H400.001H320.001C300.668 240 284.107 253.827 280.654 272.853L264.801 360H305.454L320.001 280H380.001V360H420.001V280H480.001L494.548 360H535.201L519.36 272.853Z" fill="white"/>
<path d="M135.199 440C69.0258 440 15.1992 493.827 15.1992 560C15.1992 626.173 69.0258 680 135.199 680C201.373 680 255.199 626.173 255.199 560C255.199 493.827 201.373 440 135.199 440ZM135.199 640C91.0133 640 55.1992 604.186 55.1992 560C55.1992 515.814 91.0133 480 135.199 480C179.385 480 215.199 515.814 215.199 560C215.199 604.186 179.385 640 135.199 640Z" fill="white"/>
<path d="M254.559 712.853C251.092 693.827 234.533 680 215.2 680H135.2H55.2C35.8672 680 19.3062 693.827 15.8406 712.853L0 800H40.6531L55.2 720H115.2V800H155.2V720H215.2L229.747 800H270.4L254.559 712.853Z" fill="white"/>
<path d="M664.801 440C598.627 440 544.801 493.827 544.801 560C544.801 626.173 598.627 680 664.801 680C730.974 680 784.801 626.173 784.801 560C784.801 493.827 730.974 440 664.801 440ZM664.801 640C620.615 640 584.801 604.186 584.801 560C584.801 515.814 620.615 480 664.801 480C708.987 480 744.801 515.814 744.801 560C744.801 604.186 708.987 640 664.801 640Z" fill="white"/>
<path d="M784.159 712.853C780.692 693.827 764.132 680 744.8 680H664.8H584.8C565.467 680 548.906 693.827 545.44 712.853L529.6 800H570.253L584.8 720H644.8V800H684.8V720H744.8L759.346 800H800L784.159 712.853Z" fill="white"/>
<path d="M513.92 582.694L420 528.467V420C420 408.947 411.053 400 400 400C388.947 400 380 408.947 380 420V528.467L286.08 582.694C276.506 588.2 273.226 600.427 278.759 610C282.466 616.4 289.186 620 296.106 620C299.506 620 302.947 619.147 306.092 617.306L399.998 563.08L493.919 617.306C497.066 619.147 500.505 620 503.905 620C510.825 620 517.531 616.4 521.251 610C526.773 600.427 523.494 588.2 513.92 582.694Z" fill="white"/>
</g>
<defs>
<clipPath id="clip0_460_33">
<rect width="800" height="800" fill="white"/>
</clipPath>
</defs>
</svg>
