<svg width="800" height="800" viewBox="0 0 800 800" fill="none" xmlns="http://www.w3.org/2000/svg">
<path d="M66.666 406.797C66.666 330.517 66.666 292.376 83.9727 260.758C101.279 229.141 132.898 209.517 196.134 170.271L262.8 128.896C329.646 87.41 363.069 66.667 399.999 66.667C436.929 66.667 470.353 87.41 537.199 128.896L603.866 170.271C667.103 209.517 698.719 229.141 716.026 260.758C733.333 292.376 733.333 330.517 733.333 406.797V457.5C733.333 587.527 733.333 652.544 694.279 692.937C655.229 733.334 592.373 733.334 466.666 733.334H333.333C207.625 733.334 144.771 733.334 105.718 692.937C66.666 652.544 66.666 587.527 66.666 457.5V406.797Z" stroke="white" stroke-width="50"/>
<path d="M500 600H300" stroke="white" stroke-width="50" stroke-linecap="round"/>
</svg>
