<svg width="800" height="800" viewBox="0 0 800 800" fill="none" xmlns="http://www.w3.org/2000/svg">
<path d="M683.333 153.633C665.084 131.553 642.165 113.795 616.227 101.639C590.289 89.4825 561.978 83.2304 533.333 83.333C484.321 81.849 436.604 99.206 399.999 131.833C363.395 99.206 315.678 81.849 266.666 83.333C238.021 83.2304 209.71 89.4825 183.772 101.639C157.834 113.795 134.915 131.553 116.666 153.633C84.8993 192.166 51.666 261.933 73.6993 375.633C108.866 557.2 372.566 706.2 383.699 712.3C388.662 715.067 394.25 716.52 399.933 716.52C405.615 716.52 411.203 715.067 416.166 712.3C427.366 706.066 691.066 557.066 726.166 375.633C748.333 261.933 715.099 192.166 683.333 153.633ZM660.866 362.966C635.999 491.333 455.266 610.733 399.999 644.666C322.133 597.666 161.933 479.666 139.299 362.966C122.199 274.766 145.599 223.533 168.266 196.066C180.253 181.603 195.292 169.972 212.305 162.008C229.317 154.043 247.881 149.943 266.666 150C286.729 148.495 306.84 152.215 325.037 160.797C343.234 169.378 358.898 182.529 370.499 198.966C373.36 204.231 377.581 208.632 382.721 211.71C387.861 214.789 393.733 216.433 399.724 216.47C405.716 216.507 411.608 214.937 416.786 211.923C421.964 208.909 426.24 204.561 429.166 199.333C440.745 182.767 456.442 169.506 474.708 160.855C492.974 152.204 513.18 148.462 533.333 150C552.157 149.908 570.766 153.992 587.822 161.958C604.877 169.924 619.954 181.573 631.966 196.066C654.566 223.533 677.966 274.766 660.866 362.966Z" fill="white"/>
</svg>
