<svg width="800" height="800" viewBox="0 0 800 800" fill="none" xmlns="http://www.w3.org/2000/svg">
<g clip-path="url(#clip0_460_63)">
<path d="M612.205 248.219C614.158 246.527 616.113 244.8 618.08 243.036C661.387 204.103 682.44 169.638 682.44 137.678C682.44 91.5855 645.624 54.0879 600.372 54.0879C578.952 54.0879 559.421 62.4919 544.789 76.2293C530.158 62.4919 510.626 54.0879 489.204 54.0879C443.949 54.0879 407.13 91.5855 407.13 137.678C407.13 169.641 428.183 204.105 471.496 243.039C473.813 245.124 476.129 247.152 478.427 249.137C449.942 257.172 423.48 270.085 400 286.912C375.596 269.423 347.97 256.17 318.198 248.219C320.151 246.527 322.106 244.8 324.073 243.036C367.38 204.103 388.434 169.638 388.434 137.678C388.434 91.5855 351.618 54.0879 306.365 54.0879C284.945 54.0879 265.414 62.4919 250.782 76.2293C236.148 62.4919 216.62 54.0879 195.197 54.0879C149.942 54.0879 113.123 91.5855 113.123 137.678C113.123 169.641 134.176 204.105 177.487 243.039C179.803 245.124 182.12 247.152 184.418 249.137C78.1333 279.12 0 377 0 492.8C0 632.364 113.495 745.913 252.999 745.913C307.776 745.913 358.543 728.399 400 698.683C441.463 728.399 492.226 745.913 547.006 745.913C686.508 745.913 800 632.367 800 492.8C800 375.777 720.21 277.067 612.205 248.219ZM460.11 137.678C460.11 120.798 473.161 107.066 489.204 107.066C505.247 107.066 518.3 120.8 518.3 137.678C518.3 152.307 530.16 164.167 544.789 164.167C559.418 164.167 571.278 152.307 571.278 137.678C571.278 120.798 584.329 107.066 600.372 107.066C616.415 107.066 629.463 120.8 629.463 137.678C629.463 163.346 583.108 206.713 544.776 234.147C506.446 206.769 460.11 163.443 460.11 137.678ZM400 628.337C367.119 592.66 346.987 545.045 346.987 492.803C346.987 440.558 367.119 392.943 400 357.264C432.884 392.943 453.016 440.561 453.016 492.803C453.016 545.045 432.884 592.658 400 628.337ZM166.104 137.678C166.104 120.798 179.154 107.066 195.197 107.066C211.24 107.066 224.294 120.8 224.294 137.678C224.294 152.307 236.154 164.167 250.782 164.167C265.411 164.167 277.271 152.307 277.271 137.678C277.271 120.798 290.322 107.066 306.365 107.066C322.408 107.066 335.456 120.8 335.456 137.678C335.456 163.346 289.102 206.713 250.769 234.147C212.436 206.769 166.104 163.443 166.104 137.678ZM52.9805 492.8C52.9805 382.443 142.71 292.66 252.999 292.66C292.013 292.66 328.428 303.941 359.235 323.349C318.715 368.245 294.009 427.688 294.009 492.8C294.009 557.913 318.715 617.35 359.235 662.247C328.428 681.654 292.013 692.935 252.999 692.935C142.707 692.935 52.9805 603.157 52.9805 492.8ZM547.006 692.935C507.989 692.935 471.574 681.654 440.768 662.247C481.288 617.35 505.993 557.913 505.993 492.8C505.993 427.688 481.288 368.245 440.768 323.349C471.577 303.941 507.989 292.66 547.006 292.66C657.293 292.66 747.022 382.443 747.022 492.8C747.022 603.157 657.293 692.935 547.006 692.935Z" fill="white"/>
</g>
<defs>
<clipPath id="clip0_460_63">
<rect width="800" height="800" fill="white"/>
</clipPath>
</defs>
</svg>
