<svg width="800" height="800" viewBox="0 0 800 800" fill="none" xmlns="http://www.w3.org/2000/svg">
<path d="M733.334 533.333H633.334V500C640.141 499.992 646.782 497.901 652.365 494.008C657.948 490.114 662.205 484.605 664.565 478.22C666.924 471.836 667.272 464.882 665.562 458.293C663.853 451.705 660.167 445.798 655.001 441.366L433.334 251.333V166.666H466.667C475.508 166.666 483.986 163.154 490.238 156.903C496.489 150.652 500.001 142.174 500.001 133.333C500.001 124.492 496.489 116.014 490.238 109.763C483.986 103.512 475.508 99.9997 466.667 99.9997H433.334V66.6663C433.334 57.8258 429.822 49.3473 423.571 43.0961C417.32 36.8449 408.841 33.333 400.001 33.333C391.16 33.333 382.682 36.8449 376.43 43.0961C370.179 49.3473 366.667 57.8258 366.667 66.6663V99.9997H333.334C324.493 99.9997 316.015 103.512 309.764 109.763C303.513 116.014 300.001 124.492 300.001 133.333C300.001 142.174 303.513 150.652 309.764 156.903C316.015 163.154 324.493 166.666 333.334 166.666H366.667V251.333L145.001 441.333C138.286 447.084 134.131 455.266 133.45 464.081C132.769 472.895 135.617 481.619 141.367 488.333C144.506 491.944 148.398 494.824 152.768 496.771C157.139 498.717 161.883 499.683 166.667 499.6V533.333H66.6673C57.8268 533.333 49.3483 536.845 43.0971 543.096C36.8459 549.347 33.334 557.826 33.334 566.666V733.333C33.334 742.174 36.8459 750.652 43.0971 756.903C49.3483 763.154 57.8268 766.666 66.6673 766.666H733.334C742.175 766.666 750.653 763.154 756.904 756.903C763.155 750.652 766.667 742.174 766.667 733.333V566.666C766.667 557.826 763.155 549.347 756.904 543.096C750.653 536.845 742.175 533.333 733.334 533.333ZM100.001 600H166.667V700H100.001V600ZM233.334 566.666V453.333L400.001 310.5L566.667 453.333V700H500.001V600C500.001 573.478 489.465 548.043 470.711 529.289C451.958 510.535 426.522 500 400.001 500C373.479 500 348.044 510.535 329.29 529.289C310.536 548.043 300.001 573.478 300.001 600V700H233.334V566.666ZM366.667 700V600C366.667 591.159 370.179 582.681 376.43 576.429C382.682 570.178 391.16 566.666 400.001 566.666C408.841 566.666 417.32 570.178 423.571 576.429C429.822 582.681 433.334 591.159 433.334 600V700H366.667ZM700.001 700H633.334V600H700.001V700Z" fill="white"/>
</svg>
