<svg width="800" height="800" viewBox="0 0 800 800" fill="none" xmlns="http://www.w3.org/2000/svg">
<g clip-path="url(#clip0_460_67)">
<path d="M682.842 117.158C607.292 41.6082 506.844 0.00195312 400 0.00195312C293.156 0.00195312 192.708 41.6082 117.158 117.158C41.6078 192.708 0 293.157 0 400C0 506.844 41.6078 607.293 117.158 682.843C192.708 758.393 293.156 800 400 800C404.361 800 408.708 799.905 413.048 799.768V800C423.886 800 434.542 799.136 444.958 797.488C534.794 787.502 617.994 747.691 682.842 682.843C758.392 607.293 800 506.844 800 400C800 293.157 758.392 192.708 682.842 117.158ZM441.928 773.207C428.102 774.733 414.114 775.535 400 775.535C299.692 775.536 205.386 736.474 134.459 665.544C63.5297 594.614 24.4656 500.308 24.4656 400C24.4656 299.693 63.5281 205.388 134.458 134.46C175.836 93.0816 225.18 62.5723 279.02 44.3113C231.023 82.1191 200.272 140.782 200.272 206.525C200.272 320.402 292.602 413.049 406.255 413.049H412.508C512.669 413.049 594.428 494.355 594.428 594.291C594.428 684.366 527.906 759.291 441.928 773.207ZM665.542 665.546C633.32 697.766 596.262 723.386 556.019 741.78C594.664 704.375 618.895 652.083 618.895 594.291C618.895 480.863 526.163 388.583 412.508 388.583H406.255C306.092 388.583 224.739 306.911 224.739 206.525C224.739 106.25 305.397 24.6723 406.525 24.6723V24.5473C504.391 26.2051 596.155 65.0707 665.544 134.46C736.472 205.389 775.536 299.694 775.536 400.002C775.536 500.31 736.472 594.614 665.542 665.546Z" fill="white"/>
<path d="M491.078 208.95L474.72 199.863L491.078 190.777C515.381 177.275 528.379 149.977 522.693 124.391C520.128 112.847 514.336 102.311 505.943 93.9189C497.55 85.5252 487.015 79.7346 475.472 77.1689C449.883 71.4799 422.587 84.4799 409.084 108.785L399.998 125.141L390.912 108.783C377.412 84.4814 350.112 71.4736 324.528 77.1689C312.986 79.7346 302.45 85.5268 294.056 93.9189C285.664 102.311 279.872 112.847 277.306 124.391C271.618 149.977 284.618 177.274 308.922 190.777L325.279 199.863L308.922 208.952C284.618 222.452 271.618 249.752 277.306 275.336C279.872 286.88 285.664 297.417 294.056 305.808C302.448 314.2 312.983 319.992 324.526 322.558C328.545 323.452 332.603 323.885 336.648 323.885C358.347 323.885 379.533 311.428 390.912 290.944L400 274.585L409.086 290.942C420.468 311.428 441.653 323.881 463.351 323.881C467.395 323.881 471.454 323.449 475.473 322.555C487.017 319.988 497.553 314.197 505.945 305.805C514.337 297.413 520.128 286.878 522.695 275.333C528.381 249.75 515.381 222.45 491.078 208.95ZM430.473 120.666C438.754 105.763 455.072 97.6939 470.165 101.052C477.158 102.606 483.548 106.121 488.643 111.219C493.74 116.316 497.256 122.706 498.811 129.699C502.165 144.788 494.098 161.108 479.197 169.388L436.609 193.047C436.008 189.772 434.951 186.624 433.511 183.65L452.873 164.289L435.575 146.991L416.211 166.353C413.237 164.911 410.089 163.858 406.814 163.255L430.473 120.666ZM320.801 169.389C305.898 161.11 297.834 144.789 301.187 129.699C302.742 122.705 306.256 116.316 311.354 111.219C316.453 106.122 322.84 102.606 329.834 101.052C344.918 97.6955 361.243 105.763 369.525 120.664L386.004 150.33L379.492 162.053L364.426 146.988L347.126 164.286L362.192 179.352L350.468 185.864L320.801 169.389ZM369.523 279.061C361.245 293.963 344.926 302.031 329.834 298.674C322.84 297.119 316.45 293.605 311.354 288.506C306.258 283.411 302.742 277.02 301.187 270.028C297.833 254.939 305.898 238.619 320.8 230.339L363.387 206.68C363.99 209.955 365.045 213.103 366.486 216.077L347.123 235.439L364.423 252.741L383.786 233.378C386.759 234.821 389.906 235.874 393.181 236.477L369.523 279.061ZM409.039 208.902C406.623 211.316 403.415 212.647 400 212.647C396.586 212.649 393.375 211.317 390.959 208.902C388.545 206.488 387.215 203.278 387.215 199.863C387.215 196.447 388.547 193.238 390.961 190.824C393.376 188.41 396.586 187.08 400 187.08C403.414 187.08 406.625 188.41 409.039 190.824H409.04C411.454 193.238 412.784 196.447 412.784 199.863C412.784 203.275 411.456 206.488 409.039 208.902ZM498.809 270.028C497.254 277.022 493.74 283.411 488.642 288.508C483.547 293.603 477.156 297.121 470.162 298.675C455.068 302.03 438.751 293.963 430.473 279.063L413.993 249.396L420.506 237.672L435.572 252.738L452.87 235.436L437.804 220.371L449.528 213.858L479.193 230.338C494.1 238.616 502.165 254.938 498.809 270.028Z" fill="white"/>
<path d="M491.079 609.225L474.721 600.138L491.079 591.052C515.382 577.552 528.382 550.252 522.695 524.666C520.129 513.122 514.337 502.586 505.945 494.194C497.552 485.802 487.017 480.011 475.473 477.444C449.884 471.755 422.588 484.757 409.085 509.06L399.999 525.418L390.91 509.06C377.409 484.758 350.112 471.757 324.524 477.446C312.981 480.011 302.446 485.805 294.054 494.194C285.66 502.586 279.87 513.122 277.304 524.666C271.617 550.25 284.617 577.55 308.92 591.052L325.277 600.141L308.92 609.229C284.618 622.73 271.617 650.03 277.306 675.613C279.871 687.157 285.663 697.694 294.056 706.085C302.448 714.479 312.984 720.269 324.526 722.835C328.545 723.729 332.602 724.161 336.648 724.161C358.345 724.161 379.532 711.705 390.912 691.221L400.001 674.863L409.09 691.221C420.47 711.707 441.654 724.161 463.352 724.161C467.395 724.161 471.456 723.729 475.473 722.835C487.017 720.269 497.552 714.477 505.946 706.085C514.338 697.693 520.129 687.158 522.696 675.613C528.381 650.027 515.382 622.727 491.079 609.225ZM430.473 520.941C438.754 506.04 455.073 497.971 470.163 501.327C477.157 502.882 483.548 506.397 488.643 511.494C493.74 516.591 497.256 522.98 498.81 529.974C502.165 545.063 494.098 561.385 479.196 569.663L449.531 586.143L437.807 579.63L452.873 564.565L435.574 547.263L420.509 562.329L413.996 550.605L430.473 520.941ZM320.801 569.664C305.898 561.383 297.834 545.063 301.187 529.972C302.742 522.979 306.256 516.59 311.354 511.493C316.449 506.397 322.84 502.88 329.834 501.325C344.923 497.969 361.243 506.036 369.524 520.938L393.184 563.525C389.909 564.129 386.762 565.183 383.788 566.624L364.426 547.261L347.126 564.563L366.485 583.927C365.043 586.9 363.99 590.047 363.387 593.324L320.801 569.664ZM369.523 679.336C361.245 694.24 344.923 702.304 329.832 698.95C322.84 697.396 316.451 693.882 311.354 688.783C306.257 683.688 302.742 677.297 301.187 670.304C297.832 655.214 305.898 638.894 320.799 630.613L350.465 614.133L362.188 620.646L347.123 635.711L364.421 653.01L379.487 637.944L385.999 649.668L369.523 679.336ZM399.996 612.924C396.582 612.924 393.373 611.594 390.957 609.179C388.543 606.764 387.212 603.555 387.212 600.139C387.212 596.725 388.543 593.516 390.957 591.1C393.371 588.686 396.581 587.355 399.995 587.355C403.412 587.355 406.621 588.686 409.037 591.1C411.451 593.514 412.781 596.724 412.781 600.139C412.781 603.555 411.452 606.764 409.037 609.179L409.035 609.18C406.623 611.594 403.412 612.924 399.996 612.924ZM498.809 670.302C497.254 677.296 493.74 683.686 488.641 688.782C483.546 693.879 477.156 697.394 470.162 698.949C455.068 702.304 438.751 694.236 430.473 679.336L406.812 636.749C410.087 636.146 413.235 635.091 416.209 633.65L435.573 653.013L452.871 635.714L433.509 616.352C434.951 613.379 436.004 610.23 436.607 606.955L479.195 630.614C494.099 638.893 502.165 655.213 498.809 670.302Z" fill="white"/>
<path d="M317.345 429.096L309.287 452.197C321.818 456.569 334.823 459.9 347.94 462.102L351.989 437.974C340.231 436 328.576 433.013 317.345 429.096Z" fill="white"/>
<path d="M174.563 227.992H150.098C150.098 317.209 199.379 398.081 278.71 439.045L289.937 417.306C218.773 380.559 174.563 308.019 174.563 227.992Z" fill="white"/>
<path d="M477.077 350.411L473.031 374.539C484.781 376.51 496.439 379.497 507.673 383.416L515.73 360.314C503.192 355.941 490.187 352.61 477.077 350.411Z" fill="white"/>
<path d="M546.305 373.464L535.078 395.203C606.244 431.951 650.452 504.492 650.452 584.517H674.917C674.917 495.3 625.636 414.429 546.305 373.464Z" fill="white"/>
</g>
<defs>
<clipPath id="clip0_460_67">
<rect width="800" height="800" fill="white"/>
</clipPath>
</defs>
</svg>
